%TF.GenerationSoftware,KiCad,Pcbnew,6.0.2-378541a8eb~116~ubuntu20.04.1*%
%TF.CreationDate,2022-02-26T16:05:59-06:00*%
%TF.ProjectId,sma_to_led,736d615f-746f-45f6-9c65-642e6b696361,1.0*%
%TF.SameCoordinates,Original*%
%TF.FileFunction,Copper,L2,Bot*%
%TF.FilePolarity,Positive*%
%FSLAX46Y46*%
G04 Gerber Fmt 4.6, Leading zero omitted, Abs format (unit mm)*
G04 Created by KiCad (PCBNEW 6.0.2-378541a8eb~116~ubuntu20.04.1) date 2022-02-26 16:05:59*
%MOMM*%
%LPD*%
G01*
G04 APERTURE LIST*
%TA.AperFunction,SMDPad,CuDef*%
%ADD10R,5.080000X1.500000*%
%TD*%
%TA.AperFunction,ComponentPad*%
%ADD11R,1.800000X1.800000*%
%TD*%
%TA.AperFunction,ComponentPad*%
%ADD12C,1.800000*%
%TD*%
%TA.AperFunction,ViaPad*%
%ADD13C,0.508000*%
%TD*%
G04 APERTURE END LIST*
D10*
%TO.P,J1,2,Ext*%
%TO.N,GND*%
X124177500Y-93150000D03*
X124177500Y-84650000D03*
%TD*%
D11*
%TO.P,D2,1,K*%
%TO.N,GND*%
X111125000Y-85090000D03*
D12*
%TO.P,D2,2,A*%
%TO.N,/RtoLED*%
X111125000Y-87630000D03*
%TD*%
D13*
%TO.N,GND*%
X123825000Y-95250000D03*
X123825000Y-91440000D03*
X123825000Y-86360000D03*
X123825000Y-82550000D03*
X114500000Y-94415000D03*
X113030000Y-85090000D03*
X120210000Y-93150000D03*
X120653266Y-84637931D03*
%TD*%
%TA.AperFunction,Conductor*%
%TO.N,GND*%
G36*
X126307121Y-81300002D02*
G01*
X126353614Y-81353658D01*
X126365000Y-81406000D01*
X126365000Y-83266000D01*
X126344998Y-83334121D01*
X126291342Y-83380614D01*
X126239000Y-83392000D01*
X124449615Y-83392000D01*
X124434376Y-83396475D01*
X124433171Y-83397865D01*
X124431500Y-83405548D01*
X124431500Y-85889884D01*
X124435975Y-85905123D01*
X124437365Y-85906328D01*
X124445048Y-85907999D01*
X126239000Y-85907999D01*
X126307121Y-85928001D01*
X126353614Y-85981657D01*
X126365000Y-86033999D01*
X126365000Y-91766000D01*
X126344998Y-91834121D01*
X126291342Y-91880614D01*
X126239000Y-91892000D01*
X124449615Y-91892000D01*
X124434376Y-91896475D01*
X124433171Y-91897865D01*
X124431500Y-91905548D01*
X124431500Y-94389884D01*
X124435975Y-94405123D01*
X124437365Y-94406328D01*
X124445048Y-94407999D01*
X126239000Y-94407999D01*
X126307121Y-94428001D01*
X126353614Y-94481657D01*
X126365000Y-94533999D01*
X126365000Y-96394000D01*
X126344998Y-96462121D01*
X126291342Y-96508614D01*
X126239000Y-96520000D01*
X106171000Y-96520000D01*
X106102879Y-96499998D01*
X106056386Y-96446342D01*
X106045000Y-96394000D01*
X106045000Y-93944669D01*
X121129501Y-93944669D01*
X121129871Y-93951490D01*
X121135395Y-94002352D01*
X121139021Y-94017604D01*
X121184176Y-94138054D01*
X121192714Y-94153649D01*
X121269215Y-94255724D01*
X121281776Y-94268285D01*
X121383851Y-94344786D01*
X121399446Y-94353324D01*
X121519894Y-94398478D01*
X121535149Y-94402105D01*
X121586014Y-94407631D01*
X121592828Y-94408000D01*
X123905385Y-94408000D01*
X123920624Y-94403525D01*
X123921829Y-94402135D01*
X123923500Y-94394452D01*
X123923500Y-93422115D01*
X123919025Y-93406876D01*
X123917635Y-93405671D01*
X123909952Y-93404000D01*
X121147616Y-93404000D01*
X121132377Y-93408475D01*
X121131172Y-93409865D01*
X121129501Y-93417548D01*
X121129501Y-93944669D01*
X106045000Y-93944669D01*
X106045000Y-92877885D01*
X121129500Y-92877885D01*
X121133975Y-92893124D01*
X121135365Y-92894329D01*
X121143048Y-92896000D01*
X123905385Y-92896000D01*
X123920624Y-92891525D01*
X123921829Y-92890135D01*
X123923500Y-92882452D01*
X123923500Y-91910116D01*
X123919025Y-91894877D01*
X123917635Y-91893672D01*
X123909952Y-91892001D01*
X121592831Y-91892001D01*
X121586010Y-91892371D01*
X121535148Y-91897895D01*
X121519896Y-91901521D01*
X121399446Y-91946676D01*
X121383851Y-91955214D01*
X121281776Y-92031715D01*
X121269215Y-92044276D01*
X121192714Y-92146351D01*
X121184176Y-92161946D01*
X121139022Y-92282394D01*
X121135395Y-92297649D01*
X121129869Y-92348514D01*
X121129500Y-92355328D01*
X121129500Y-92877885D01*
X106045000Y-92877885D01*
X106045000Y-87595469D01*
X109712095Y-87595469D01*
X109712392Y-87600622D01*
X109712392Y-87600625D01*
X109718067Y-87699041D01*
X109725427Y-87826697D01*
X109726564Y-87831743D01*
X109726565Y-87831749D01*
X109758741Y-87974523D01*
X109776346Y-88052642D01*
X109778288Y-88057424D01*
X109778289Y-88057428D01*
X109861540Y-88262450D01*
X109863484Y-88267237D01*
X109984501Y-88464719D01*
X110136147Y-88639784D01*
X110314349Y-88787730D01*
X110514322Y-88904584D01*
X110730694Y-88987209D01*
X110735760Y-88988240D01*
X110735761Y-88988240D01*
X110788846Y-88999040D01*
X110957656Y-89033385D01*
X111088324Y-89038176D01*
X111183949Y-89041683D01*
X111183953Y-89041683D01*
X111189113Y-89041872D01*
X111194233Y-89041216D01*
X111194235Y-89041216D01*
X111267270Y-89031860D01*
X111418847Y-89012442D01*
X111423795Y-89010957D01*
X111423802Y-89010956D01*
X111635747Y-88947369D01*
X111640690Y-88945886D01*
X111721236Y-88906427D01*
X111844049Y-88846262D01*
X111844052Y-88846260D01*
X111848684Y-88843991D01*
X112037243Y-88709494D01*
X112201303Y-88546005D01*
X112336458Y-88357917D01*
X112383641Y-88262450D01*
X112436784Y-88154922D01*
X112436785Y-88154920D01*
X112439078Y-88150280D01*
X112506408Y-87928671D01*
X112536640Y-87699041D01*
X112538327Y-87630000D01*
X112532032Y-87553434D01*
X112519773Y-87404318D01*
X112519772Y-87404312D01*
X112519349Y-87399167D01*
X112462925Y-87174533D01*
X112460866Y-87169797D01*
X112372630Y-86966868D01*
X112372628Y-86966865D01*
X112370570Y-86962131D01*
X112244764Y-86767665D01*
X112154486Y-86668450D01*
X112123434Y-86604605D01*
X112131829Y-86534106D01*
X112177005Y-86479338D01*
X112203449Y-86465669D01*
X112263054Y-86443324D01*
X112278649Y-86434786D01*
X112380724Y-86358285D01*
X112393285Y-86345724D01*
X112469786Y-86243649D01*
X112478324Y-86228054D01*
X112523478Y-86107606D01*
X112527105Y-86092351D01*
X112532631Y-86041486D01*
X112533000Y-86034672D01*
X112533000Y-85444669D01*
X121129501Y-85444669D01*
X121129871Y-85451490D01*
X121135395Y-85502352D01*
X121139021Y-85517604D01*
X121184176Y-85638054D01*
X121192714Y-85653649D01*
X121269215Y-85755724D01*
X121281776Y-85768285D01*
X121383851Y-85844786D01*
X121399446Y-85853324D01*
X121519894Y-85898478D01*
X121535149Y-85902105D01*
X121586014Y-85907631D01*
X121592828Y-85908000D01*
X123905385Y-85908000D01*
X123920624Y-85903525D01*
X123921829Y-85902135D01*
X123923500Y-85894452D01*
X123923500Y-84922115D01*
X123919025Y-84906876D01*
X123917635Y-84905671D01*
X123909952Y-84904000D01*
X121147616Y-84904000D01*
X121132377Y-84908475D01*
X121131172Y-84909865D01*
X121129501Y-84917548D01*
X121129501Y-85444669D01*
X112533000Y-85444669D01*
X112533000Y-85362115D01*
X112528525Y-85346876D01*
X112527135Y-85345671D01*
X112519452Y-85344000D01*
X109735116Y-85344000D01*
X109719877Y-85348475D01*
X109718672Y-85349865D01*
X109717001Y-85357548D01*
X109717001Y-86034669D01*
X109717371Y-86041490D01*
X109722895Y-86092352D01*
X109726521Y-86107604D01*
X109771676Y-86228054D01*
X109780214Y-86243649D01*
X109856715Y-86345724D01*
X109869276Y-86358285D01*
X109971351Y-86434786D01*
X109986946Y-86443324D01*
X110046540Y-86465665D01*
X110103304Y-86508307D01*
X110128004Y-86574868D01*
X110112796Y-86644217D01*
X110093404Y-86670698D01*
X110026639Y-86740564D01*
X110023725Y-86744836D01*
X110023724Y-86744837D01*
X110008152Y-86767665D01*
X109896119Y-86931899D01*
X109798602Y-87141981D01*
X109736707Y-87365169D01*
X109712095Y-87595469D01*
X106045000Y-87595469D01*
X106045000Y-84817885D01*
X109717000Y-84817885D01*
X109721475Y-84833124D01*
X109722865Y-84834329D01*
X109730548Y-84836000D01*
X110852885Y-84836000D01*
X110868124Y-84831525D01*
X110869329Y-84830135D01*
X110871000Y-84822452D01*
X110871000Y-84817885D01*
X111379000Y-84817885D01*
X111383475Y-84833124D01*
X111384865Y-84834329D01*
X111392548Y-84836000D01*
X112514884Y-84836000D01*
X112530123Y-84831525D01*
X112531328Y-84830135D01*
X112532999Y-84822452D01*
X112532999Y-84377885D01*
X121129500Y-84377885D01*
X121133975Y-84393124D01*
X121135365Y-84394329D01*
X121143048Y-84396000D01*
X123905385Y-84396000D01*
X123920624Y-84391525D01*
X123921829Y-84390135D01*
X123923500Y-84382452D01*
X123923500Y-83410116D01*
X123919025Y-83394877D01*
X123917635Y-83393672D01*
X123909952Y-83392001D01*
X121592831Y-83392001D01*
X121586010Y-83392371D01*
X121535148Y-83397895D01*
X121519896Y-83401521D01*
X121399446Y-83446676D01*
X121383851Y-83455214D01*
X121281776Y-83531715D01*
X121269215Y-83544276D01*
X121192714Y-83646351D01*
X121184176Y-83661946D01*
X121139022Y-83782394D01*
X121135395Y-83797649D01*
X121129869Y-83848514D01*
X121129500Y-83855328D01*
X121129500Y-84377885D01*
X112532999Y-84377885D01*
X112532999Y-84145331D01*
X112532629Y-84138510D01*
X112527105Y-84087648D01*
X112523479Y-84072396D01*
X112478324Y-83951946D01*
X112469786Y-83936351D01*
X112393285Y-83834276D01*
X112380724Y-83821715D01*
X112278649Y-83745214D01*
X112263054Y-83736676D01*
X112142606Y-83691522D01*
X112127351Y-83687895D01*
X112076486Y-83682369D01*
X112069672Y-83682000D01*
X111397115Y-83682000D01*
X111381876Y-83686475D01*
X111380671Y-83687865D01*
X111379000Y-83695548D01*
X111379000Y-84817885D01*
X110871000Y-84817885D01*
X110871000Y-83700116D01*
X110866525Y-83684877D01*
X110865135Y-83683672D01*
X110857452Y-83682001D01*
X110180331Y-83682001D01*
X110173510Y-83682371D01*
X110122648Y-83687895D01*
X110107396Y-83691521D01*
X109986946Y-83736676D01*
X109971351Y-83745214D01*
X109869276Y-83821715D01*
X109856715Y-83834276D01*
X109780214Y-83936351D01*
X109771676Y-83951946D01*
X109726522Y-84072394D01*
X109722895Y-84087649D01*
X109717369Y-84138514D01*
X109717000Y-84145328D01*
X109717000Y-84817885D01*
X106045000Y-84817885D01*
X106045000Y-81406000D01*
X106065002Y-81337879D01*
X106118658Y-81291386D01*
X106171000Y-81280000D01*
X126239000Y-81280000D01*
X126307121Y-81300002D01*
G37*
%TD.AperFunction*%
%TD*%
M02*
