%TF.GenerationSoftware,KiCad,Pcbnew,6.0.2-378541a8eb~116~ubuntu20.04.1*%
%TF.CreationDate,2022-02-26T16:05:59-06:00*%
%TF.ProjectId,sma_to_led,736d615f-746f-45f6-9c65-642e6b696361,1.0*%
%TF.SameCoordinates,Original*%
%TF.FileFunction,Legend,Top*%
%TF.FilePolarity,Positive*%
%FSLAX46Y46*%
G04 Gerber Fmt 4.6, Leading zero omitted, Abs format (unit mm)*
G04 Created by KiCad (PCBNEW 6.0.2-378541a8eb~116~ubuntu20.04.1) date 2022-02-26 16:05:59*
%MOMM*%
%LPD*%
G01*
G04 APERTURE LIST*
%ADD10C,0.150000*%
%ADD11C,0.120000*%
G04 APERTURE END LIST*
D10*
%TO.C,J1*%
X121901666Y-82002380D02*
X121901666Y-82716666D01*
X121854047Y-82859523D01*
X121758809Y-82954761D01*
X121615952Y-83002380D01*
X121520714Y-83002380D01*
X122901666Y-83002380D02*
X122330238Y-83002380D01*
X122615952Y-83002380D02*
X122615952Y-82002380D01*
X122520714Y-82145238D01*
X122425476Y-82240476D01*
X122330238Y-82288095D01*
%TO.C,D1*%
X110066904Y-93379880D02*
X110066904Y-92379880D01*
X110305000Y-92379880D01*
X110447857Y-92427500D01*
X110543095Y-92522738D01*
X110590714Y-92617976D01*
X110638333Y-92808452D01*
X110638333Y-92951309D01*
X110590714Y-93141785D01*
X110543095Y-93237023D01*
X110447857Y-93332261D01*
X110305000Y-93379880D01*
X110066904Y-93379880D01*
X111590714Y-93379880D02*
X111019285Y-93379880D01*
X111305000Y-93379880D02*
X111305000Y-92379880D01*
X111209761Y-92522738D01*
X111114523Y-92617976D01*
X111019285Y-92665595D01*
%TO.C,R1*%
X117593333Y-91172380D02*
X117260000Y-90696190D01*
X117021904Y-91172380D02*
X117021904Y-90172380D01*
X117402857Y-90172380D01*
X117498095Y-90220000D01*
X117545714Y-90267619D01*
X117593333Y-90362857D01*
X117593333Y-90505714D01*
X117545714Y-90600952D01*
X117498095Y-90648571D01*
X117402857Y-90696190D01*
X117021904Y-90696190D01*
X118545714Y-91172380D02*
X117974285Y-91172380D01*
X118260000Y-91172380D02*
X118260000Y-90172380D01*
X118164761Y-90315238D01*
X118069523Y-90410476D01*
X117974285Y-90458095D01*
%TO.C,D2*%
X110386904Y-83002380D02*
X110386904Y-82002380D01*
X110625000Y-82002380D01*
X110767857Y-82050000D01*
X110863095Y-82145238D01*
X110910714Y-82240476D01*
X110958333Y-82430952D01*
X110958333Y-82573809D01*
X110910714Y-82764285D01*
X110863095Y-82859523D01*
X110767857Y-82954761D01*
X110625000Y-83002380D01*
X110386904Y-83002380D01*
X111339285Y-82097619D02*
X111386904Y-82050000D01*
X111482142Y-82002380D01*
X111720238Y-82002380D01*
X111815476Y-82050000D01*
X111863095Y-82097619D01*
X111910714Y-82192857D01*
X111910714Y-82288095D01*
X111863095Y-82430952D01*
X111291666Y-83002380D01*
X111910714Y-83002380D01*
D11*
%TO.C,J1*%
X120467500Y-89150000D02*
X120967500Y-88900000D01*
X120467500Y-88650000D02*
X120467500Y-89150000D01*
X120967500Y-88900000D02*
X120467500Y-88650000D01*
%TO.C,D1*%
X114165000Y-95387500D02*
X114165000Y-91327500D01*
X111895000Y-95387500D02*
X114165000Y-95387500D01*
X111895000Y-91327500D02*
X111895000Y-95387500D01*
%TO.C,R1*%
X118487064Y-87990000D02*
X117032936Y-87990000D01*
X118487064Y-89810000D02*
X117032936Y-89810000D01*
%TO.C,D2*%
X112670000Y-83800000D02*
X109580000Y-83800000D01*
X109580170Y-83800000D02*
G75*
G03*
X111125462Y-89350000I1544830J-2560000D01*
G01*
X111124538Y-89350000D02*
G75*
G03*
X112669830Y-83800000I462J2990000D01*
G01*
X113625000Y-86360000D02*
G75*
G03*
X113625000Y-86360000I-2500000J0D01*
G01*
%TD*%
M02*
