%TF.GenerationSoftware,KiCad,Pcbnew,6.0.2-378541a8eb~116~ubuntu20.04.1*%
%TF.CreationDate,2022-02-26T16:05:58-06:00*%
%TF.ProjectId,sma_to_led,736d615f-746f-45f6-9c65-642e6b696361,1.0*%
%TF.SameCoordinates,Original*%
%TF.FileFunction,Copper,L1,Top*%
%TF.FilePolarity,Positive*%
%FSLAX46Y46*%
G04 Gerber Fmt 4.6, Leading zero omitted, Abs format (unit mm)*
G04 Created by KiCad (PCBNEW 6.0.2-378541a8eb~116~ubuntu20.04.1) date 2022-02-26 16:05:58*
%MOMM*%
%LPD*%
G01*
G04 APERTURE LIST*
G04 Aperture macros list*
%AMRoundRect*
0 Rectangle with rounded corners*
0 $1 Rounding radius*
0 $2 $3 $4 $5 $6 $7 $8 $9 X,Y pos of 4 corners*
0 Add a 4 corners polygon primitive as box body*
4,1,4,$2,$3,$4,$5,$6,$7,$8,$9,$2,$3,0*
0 Add four circle primitives for the rounded corners*
1,1,$1+$1,$2,$3*
1,1,$1+$1,$4,$5*
1,1,$1+$1,$6,$7*
1,1,$1+$1,$8,$9*
0 Add four rect primitives between the rounded corners*
20,1,$1+$1,$2,$3,$4,$5,0*
20,1,$1+$1,$4,$5,$6,$7,0*
20,1,$1+$1,$6,$7,$8,$9,0*
20,1,$1+$1,$8,$9,$2,$3,0*%
G04 Aperture macros list end*
%TA.AperFunction,SMDPad,CuDef*%
%ADD10R,5.080000X1.500000*%
%TD*%
%TA.AperFunction,SMDPad,CuDef*%
%ADD11RoundRect,0.250001X0.624999X-0.462499X0.624999X0.462499X-0.624999X0.462499X-0.624999X-0.462499X0*%
%TD*%
%TA.AperFunction,SMDPad,CuDef*%
%ADD12RoundRect,0.250000X0.400000X0.625000X-0.400000X0.625000X-0.400000X-0.625000X0.400000X-0.625000X0*%
%TD*%
%TA.AperFunction,ComponentPad*%
%ADD13R,1.800000X1.800000*%
%TD*%
%TA.AperFunction,ComponentPad*%
%ADD14C,1.800000*%
%TD*%
%TA.AperFunction,ViaPad*%
%ADD15C,0.508000*%
%TD*%
%TA.AperFunction,Conductor*%
%ADD16C,0.304800*%
%TD*%
%TA.AperFunction,Conductor*%
%ADD17C,0.152400*%
%TD*%
G04 APERTURE END LIST*
D10*
%TO.P,J1,1,In*%
%TO.N,/Vin*%
X124177500Y-88900000D03*
%TO.P,J1,2,Ext*%
%TO.N,GND*%
X124177500Y-93150000D03*
X124177500Y-84650000D03*
%TD*%
D11*
%TO.P,D1,1,K*%
%TO.N,GND*%
X113030000Y-94415000D03*
%TO.P,D1,2,A*%
%TO.N,/RtoLED*%
X113030000Y-91440000D03*
%TD*%
D12*
%TO.P,R1,1*%
%TO.N,/Vin*%
X119310000Y-88900000D03*
%TO.P,R1,2*%
%TO.N,/RtoLED*%
X116210000Y-88900000D03*
%TD*%
D13*
%TO.P,D2,1,K*%
%TO.N,GND*%
X111125000Y-85090000D03*
D14*
%TO.P,D2,2,A*%
%TO.N,/RtoLED*%
X111125000Y-87630000D03*
%TD*%
D15*
%TO.N,GND*%
X123825000Y-95250000D03*
X123825000Y-91440000D03*
X123825000Y-86360000D03*
X123825000Y-82550000D03*
X114500000Y-94415000D03*
X113030000Y-85090000D03*
X120210000Y-93150000D03*
X120653266Y-84637931D03*
%TD*%
D16*
%TO.N,GND*%
X117553980Y-93150000D02*
X120210000Y-93150000D01*
D17*
X113030000Y-85090000D02*
X111125000Y-85090000D01*
X124177500Y-84650000D02*
X114092253Y-84650000D01*
X124177500Y-92291010D02*
X124177500Y-93150000D01*
D16*
X113030000Y-94415000D02*
X114500000Y-94415000D01*
D17*
X124177500Y-83401010D02*
X124177500Y-84650000D01*
X124177500Y-85508990D02*
X124177500Y-84650000D01*
D16*
X120210000Y-93150000D02*
X124177500Y-93150000D01*
D17*
X124177500Y-94398990D02*
X124177500Y-93150000D01*
X124177500Y-92291010D02*
G75*
G03*
X123825000Y-91440000I-1203514J-2D01*
G01*
X124177500Y-85508990D02*
G75*
G02*
X123825000Y-86360000I-1203502J-3D01*
G01*
X124177500Y-94398990D02*
G75*
G02*
X123825000Y-95250000I-1203502J-3D01*
G01*
X113030000Y-85090000D02*
G75*
G02*
X114092253Y-84650000I1062252J-1062250D01*
G01*
D16*
X117553980Y-93150001D02*
G75*
G03*
X114500001Y-94415001I1J-4318982D01*
G01*
D17*
X124177500Y-83401010D02*
G75*
G03*
X123825000Y-82550000I-1203514J-2D01*
G01*
D16*
%TO.N,/RtoLED*%
X116210000Y-88900000D02*
X114191051Y-88900000D01*
X115117451Y-89352548D02*
X113030000Y-91440000D01*
X115117451Y-89352548D02*
G75*
G02*
X116210000Y-88900000I1092552J-1092559D01*
G01*
X111125000Y-87630000D02*
G75*
G03*
X114191051Y-88900000I3066050J3066047D01*
G01*
%TO.N,/Vin*%
X119310000Y-88900000D02*
X124177500Y-88900000D01*
%TD*%
M02*
